<?xml version="1.0" standalone="no"?>
<!DOCTYPE svg PUBLIC "-//W3C//DTD SVG 20010904//EN"
 "http://www.w3.org/TR/2001/REC-SVG-20010904/DTD/svg10.dtd">
<svg version="1.0" xmlns="http://www.w3.org/2000/svg"
 width="536.000000pt" height="465.000000pt" viewBox="0 0 536.000000 465.000000"
 preserveAspectRatio="xMidYMid meet">

<g transform="translate(0.000000,465.000000) scale(0.100000,-0.100000)"
fill="#000000" stroke="none">
<path d="M2350 4605 c-8 -2 -62 -9 -120 -15 -183 -20 -334 -61 -550 -149 -121
-49 -160 -68 -286 -139 -33 -18 -67 -34 -76 -35 -9 0 -15 -4 -12 -8 2 -4 -27
-23 -64 -43 -171 -94 -434 -348 -575 -559 -63 -93 -187 -332 -187 -359 0 -19
-27 -84 -45 -108 -6 -8 -17 -35 -24 -60 -8 -25 -21 -67 -29 -95 -19 -60 -21
-69 -32 -120 -4 -22 -9 -31 -10 -20 -1 11 -8 -5 -16 -35 -7 -30 -11 -71 -9
-90 4 -27 3 -30 -4 -15 -8 16 -10 12 -10 -22 -1 -52 0 -46 -12 -85 -13 -40
-19 -484 -7 -466 5 8 8 -3 6 -27 -1 -42 38 -246 73 -375 92 -339 276 -684 487
-911 18 -20 32 -40 31 -45 -3 -20 2 -34 12 -34 8 0 7 6 -2 18 -7 9 18 -13 57
-49 38 -36 105 -97 149 -134 93 -79 106 -91 85 -80 -15 8 -184 153 -242 207
-17 16 -33 27 -35 25 -5 -6 209 -196 287 -254 224 -168 495 -297 785 -373 371
-98 790 -99 1145 -4 52 14 102 30 110 36 12 7 11 8 -4 3 -36 -11 -109 -26
-112 -22 -3 3 58 23 166 54 8 2 4 -3 -10 -11 -29 -18 -16 -20 29 -5 17 6 31
17 31 23 0 7 19 19 42 25 54 17 335 161 391 201 201 146 272 205 415 348 90
89 161 162 158 162 -4 0 12 20 35 45 155 166 360 565 372 727 1 9 5 14 9 12 4
-3 8 -1 8 5 0 5 3 18 6 28 5 15 4 15 -5 3 -9 -13 -11 -11 -11 7 0 12 4 23 9
25 5 2 12 30 14 63 3 33 13 107 22 165 24 147 25 446 2 603 -65 436 -259 863
-542 1187 -205 236 -492 453 -759 575 -317 144 -602 206 -946 204 -102 -1
-192 -3 -200 -4z m1250 -273 c80 -43 182 -105 228 -138 46 -32 100 -71 121
-86 133 -95 339 -323 465 -513 80 -121 206 -355 206 -381 0 -5 -30 49 -66 120
-71 142 -161 283 -256 403 -71 90 -304 325 -365 368 -218 154 -221 156 -398
251 -55 30 -95 54 -90 54 6 0 75 -35 155 -78z m-585 -782 c-27 -5 -84 -9 -125
-9 -232 -3 -785 -104 -960 -176 -19 -8 -55 -19 -80 -26 -129 -32 -461 -186
-624 -288 -139 -87 -207 -141 -316 -251 -195 -195 -266 -387 -211 -568 12 -39
36 -90 54 -114 53 -70 54 -75 4 -34 -53 43 -132 147 -170 221 -14 28 -31 84
-38 126 -22 136 11 262 106 395 76 106 149 173 314 288 185 130 600 290 916
355 133 27 427 69 556 80 132 11 643 11 574 1z m336 -60 c326 -32 595 -130
744 -271 86 -82 119 -141 136 -245 35 -218 -102 -431 -426 -660 -77 -55 -194
-123 -295 -174 l-65 -32 50 53 c96 102 99 114 4 18 -51 -53 -116 -115 -143
-137 -27 -23 -46 -42 -42 -42 4 0 80 36 169 79 283 139 467 268 615 430 197
217 236 446 109 643 -39 62 -142 155 -205 187 -77 39 -37 33 49 -7 137 -64
292 -195 378 -319 53 -78 80 -215 61 -309 -50 -240 -298 -469 -715 -659 -88
-40 -250 -105 -262 -105 -4 0 -76 -20 -158 -45 -133 -39 -319 -85 -349 -85 -6
0 22 15 61 34 39 19 74 40 79 48 6 10 5 11 -7 2 -32 -25 -210 -94 -294 -115
-120 -30 -336 -32 -475 -5 -223 44 -476 174 -648 333 -28 27 -52 44 -52 38 0
-11 120 -110 215 -177 59 -42 197 -116 278 -148 41 -17 53 -26 43 -32 -27 -15
-376 -21 -526 -9 -500 42 -852 213 -934 454 -69 203 64 458 351 674 239 179
605 355 918 440 290 79 527 125 730 141 156 13 484 14 606 2z m1288 -320 c11
-24 11 -24 -3 -6 -9 11 -16 24 -16 30 0 12 5 7 19 -24z m38 -122 c-3 -8 -6 -5
-6 6 -1 11 2 17 5 13 3 -3 4 -12 1 -19z m23 -58 c0 -13 -1 -13 -10 0 -5 8 -10
22 -10 30 0 13 1 13 10 0 5 -8 10 -22 10 -30z m-2330 -1251 c-25 -4 -101 -7
-170 -6 -122 1 -123 1 -40 7 47 3 123 7 170 7 72 0 78 -1 40 -8z m855 -50 c25
-25 30 -37 30 -77 -1 -65 -26 -110 -86 -155 -52 -39 -149 -72 -181 -61 -21 6
-22 25 -4 76 20 55 96 179 106 173 5 -3 -11 -38 -34 -78 -74 -124 -70 -140 25
-117 73 18 149 90 149 143 0 42 -25 64 -82 73 -40 7 -161 -27 -186 -52 -21
-22 -27 -3 -10 33 15 33 69 62 136 72 67 11 102 3 137 -30z m835 12 c0 -42
-12 -68 -59 -131 -23 -31 -40 -64 -39 -75 4 -28 42 -31 67 -6 13 13 21 16 21
9 0 -16 -60 -58 -83 -58 -9 0 -23 10 -31 22 l-15 21 -33 -32 c-17 -17 -37 -30
-43 -28 -5 2 -9 21 -9 43 l2 38 -30 -37 c-35 -43 -54 -47 -70 -12 l-11 25 -39
-36 c-48 -43 -72 -41 -76 4 l-3 33 -40 -35 c-21 -20 -44 -36 -49 -36 -20 0
-23 32 -6 66 25 54 19 53 -34 -6 l-49 -54 -6 27 -7 27 -34 -30 c-36 -31 -81
-39 -102 -18 -36 36 7 143 67 168 88 36 73 -53 -16 -99 -29 -15 -30 -41 -3
-41 35 0 79 29 96 63 23 45 44 66 59 61 10 -4 7 -14 -11 -41 -39 -57 -28 -57
29 2 29 30 61 55 70 55 23 0 22 -36 -3 -67 -48 -62 -8 -72 44 -11 41 48 44 58
16 58 -11 0 -20 4 -20 8 0 15 41 52 57 52 9 0 29 12 45 27 29 28 46 26 33 -4
-5 -10 -7 -24 -6 -30 3 -22 -19 -53 -38 -53 -12 0 -24 -14 -35 -43 -19 -50
-20 -67 -5 -67 22 0 49 22 78 64 33 47 113 101 137 92 19 -7 18 -61 -2 -91
-18 -27 -13 -55 9 -55 21 0 44 31 52 70 14 66 90 190 116 190 5 0 9 -13 9 -29z
m-2440 -43 c0 -32 -51 -115 -104 -170 -47 -49 -56 -77 -33 -97 17 -14 50 18
42 41 -7 17 31 68 51 68 15 0 17 -14 5 -45 -5 -11 -4 -25 1 -32 7 -9 3 -16
-13 -23 -13 -6 -39 -22 -58 -36 -32 -22 -36 -23 -50 -9 -44 44 3 189 88 275
55 55 71 61 71 28z m-375 2 c3 -5 3 -15 -1 -21 -5 -8 -10 -6 -16 5 -5 9 -14
13 -20 10 -7 -4 -8 -2 -4 4 9 15 33 16 41 2z m1015 -38 c0 -4 -6 -14 -12 -20
-10 -10 -10 -15 2 -22 13 -8 12 -10 -2 -10 -10 0 -18 -6 -18 -14 0 -8 -8 -17
-18 -20 -21 -7 -57 -73 -53 -96 5 -28 20 -33 47 -15 l27 17 -19 -26 c-20 -27
-73 -51 -85 -39 -10 11 1 64 12 57 5 -3 9 -3 9 0 0 21 -26 11 -61 -23 -50 -50
-69 -53 -69 -9 l0 32 -29 -32 c-27 -29 -61 -43 -61 -24 0 4 -4 13 -9 21 -7 12
-14 10 -36 -8 -54 -42 -92 -12 -61 48 19 37 20 41 3 41 -8 0 -28 -18 -46 -40
-17 -22 -39 -40 -47 -40 -8 0 -24 -9 -36 -20 -27 -25 -77 -27 -84 -2 -3 9 -9
24 -13 32 -13 28 31 90 83 117 28 15 31 14 48 -7 13 -17 17 -32 12 -64 l-5
-41 19 22 c11 13 18 31 15 41 -3 12 6 31 21 48 14 16 26 23 26 17 0 -8 14 -13
34 -13 47 0 53 -14 22 -59 -14 -20 -26 -42 -26 -49 0 -18 28 -14 45 6 8 9 31
35 50 58 40 47 112 85 124 65 9 -14 4 -57 -11 -88 -15 -31 -4 -57 20 -44 23
12 92 88 92 100 0 5 -9 11 -20 13 -19 3 -20 4 -5 26 16 22 55 31 55 12 0 -5 5
-10 11 -10 6 0 9 6 6 14 -3 7 1 23 9 35 15 21 34 28 34 13z m-1050 -63 c0 -19
-13 -38 -23 -32 -6 3 -7 1 -3 -6 8 -12 -10 -41 -25 -41 -16 0 -10 26 11 48 22
23 26 37 8 26 -6 -4 -8 -3 -5 3 7 11 37 13 37 2z m1243 -3 c4 -10 1 -13 -8 -9
-8 3 -12 9 -9 14 7 12 11 11 17 -5z m337 -7 c6 -11 9 -25 6 -32 -2 -7 -5 -5
-5 5 -1 9 -11 24 -23 32 -18 13 -19 16 -6 16 10 0 22 -9 28 -21z m-430 1 c8
-5 11 -10 5 -10 -5 0 -17 5 -25 10 -8 5 -10 10 -5 10 6 0 17 -5 25 -10z
m-1242 -20 c-14 -22 -24 -19 -15 5 4 8 11 15 17 15 6 0 6 -7 -2 -20z m287 -9
c3 -5 1 -12 -5 -16 -6 -4 -8 -10 -5 -14 2 -5 -2 -22 -10 -39 -19 -36 -10 -66
17 -59 26 7 18 -12 -16 -37 -23 -18 -28 -19 -36 -6 -6 8 -7 29 -4 45 l6 30
-29 -28 c-26 -24 -34 -26 -56 -18 -15 6 -27 14 -27 18 1 32 20 60 64 93 49 38
89 50 101 31z m1100 -99 c-3 -3 -11 0 -18 7 -9 10 -8 11 6 5 10 -3 15 -9 12
-12z m115 2 c0 -2 -9 -4 -20 -4 -11 0 -20 4 -20 9 0 5 9 7 20 4 11 -3 20 -7
20 -9z m-314 -26 c-6 -10 -14 -18 -18 -18 -4 0 -12 8 -17 18 -8 14 -5 17 19
17 23 0 26 -2 16 -17z m-1299 6 c-3 -3 -12 -4 -19 -1 -8 3 -5 6 6 6 11 1 17
-2 13 -5z m66 -1 c-7 -2 -19 -2 -25 0 -7 3 -2 5 12 5 14 0 19 -2 13 -5z m117
-23 c20 -6 21 -8 5 -8 -11 0 -29 3 -40 8 -25 11 1 11 35 0z m1682 -251 c55
-14 95 -66 103 -133 4 -31 3 -77 -1 -103 -9 -46 -12 -49 -79 -87 -39 -21 -104
-52 -145 -68 -95 -38 -284 -81 -332 -76 -21 2 -38 0 -38 -4 0 -5 -13 -8 -30
-8 -25 0 -32 6 -50 45 -74 163 -90 283 -46 357 49 84 127 104 245 64 96 -33
131 -33 216 4 70 30 76 30 157 9z m215 -146 c12 -8 24 -21 27 -29 7 -18 -10
-63 -32 -88 -56 -63 -244 -168 -264 -148 -6 6 -18 8 -27 5 -9 -3 25 16 74 42
207 108 261 185 162 230 l-32 15 35 -6 c19 -4 45 -13 57 -21z m-857 -182 c0
-5 -16 -26 -35 -47 -19 -22 -35 -45 -35 -52 0 -26 20 -50 51 -61 44 -15 201
-13 279 3 118 25 126 26 60 5 -36 -11 -69 -25 -74 -29 -4 -5 -25 -6 -45 -3
-32 6 -35 5 -23 -10 12 -14 9 -16 -20 -21 -18 -3 -40 -5 -48 -5 -8 0 -27 -3
-41 -7 -41 -9 -136 14 -169 43 -50 42 -35 102 42 166 39 33 58 38 58 18z m681
-94 c-6 -8 -15 -61 -21 -118 -15 -159 -45 -245 -92 -270 -25 -13 -58 13 -58
47 0 29 -10 55 -20 49 -4 -2 -5 6 -3 18 3 13 -6 38 -21 60 -14 21 -26 41 -26
44 0 6 -40 43 -47 43 -8 0 -48 -23 -60 -36 -7 -6 -22 -51 -34 -98 -26 -103
-54 -151 -89 -151 -20 0 -26 6 -30 30 -3 17 -10 28 -15 26 -15 -6 -32 34 -52
117 -20 85 -16 92 53 92 87 0 397 94 490 149 26 15 39 14 25 -2z m-1638 -215
c26 -19 47 -36 47 -39 0 -2 -27 15 -60 38 -33 23 -60 44 -60 46 0 5 15 -4 73
-45z m142 -94 c5 -4 6 -8 2 -8 -9 0 -87 51 -87 57 0 5 69 -35 85 -49z m161
-86 c-5 -4 -126 56 -126 63 0 3 29 -10 65 -27 35 -18 63 -34 61 -36z m63 -28
c14 -12 -19 -1 -35 12 -18 14 -18 14 6 3 14 -6 27 -13 29 -15z m51 -19 c14 -8
21 -14 15 -14 -5 0 -21 6 -35 14 -14 8 -20 14 -15 14 6 0 21 -6 35 -14z m190
-65 c18 -12 2 -12 -25 0 -13 6 -15 9 -5 9 8 0 22 -4 30 -9z m1213 -47 c-7 -2
-19 -2 -25 0 -7 3 -2 5 12 5 14 0 19 -2 13 -5z m-966 -19 c-3 -3 -12 -4 -19
-1 -8 3 -5 6 6 6 11 1 17 -2 13 -5z m46 -11 c-7 -2 -19 -2 -25 0 -7 3 -2 5 12
5 14 0 19 -2 13 -5z m780 0 c-7 -2 -19 -2 -25 0 -7 3 -2 5 12 5 14 0 19 -2 13
-5z m-716 -9 c-3 -3 -12 -4 -19 -1 -8 3 -5 6 6 6 11 1 17 -2 13 -5z m590 -10
c-3 -3 -12 -4 -19 -1 -8 3 -5 6 6 6 11 1 17 -2 13 -5z m-114 -11 c-7 -2 -19
-2 -25 0 -7 3 -2 5 12 5 14 0 19 -2 13 -5z"/>
<path d="M2748 3153 c7 -3 16 -2 19 1 4 3 -2 6 -13 5 -11 0 -14 -3 -6 -6z"/>
<path d="M2730 3111 c-29 -3 -32 -5 -15 -11 19 -8 19 -9 -1 -9 -12 -1 -24 -9
-26 -19 -3 -11 -33 -28 -81 -47 -43 -16 -77 -33 -77 -38 0 -5 8 -6 18 -2 22
10 144 45 155 45 4 0 3 -9 -4 -21 -6 -13 -7 -25 -2 -30 6 -6 10 -4 10 5 0 20
46 87 53 77 3 -4 39 -11 80 -15 48 -4 84 -13 100 -24 39 -28 62 -80 56 -127
-4 -33 -3 -36 6 -21 6 11 12 39 12 62 2 80 -61 130 -177 140 -81 7 -96 12 -77
24 20 12 11 16 -30 11z"/>
<path d="M1604 3032 c-69 -54 -104 -74 -104 -62 0 7 -13 4 -30 -7 -16 -9 -30
-22 -30 -29 0 -6 -10 -19 -22 -30 -14 -12 -19 -14 -14 -4 5 8 -17 -11 -48 -43
-52 -54 -60 -58 -99 -57 -62 3 -67 1 -67 -15 0 -18 46 -21 52 -3 4 10 9 8 21
-3 9 -9 14 -19 12 -21 -3 -2 18 -4 46 -5 27 0 55 -5 61 -11 9 -9 0 -12 -37
-12 -59 0 -81 -15 -152 -105 -61 -77 -145 -155 -167 -155 -24 0 -20 34 10 69
14 17 20 29 12 26 -32 -13 -64 -105 -40 -118 23 -14 62 18 210 176 l72 77 75
0 c84 0 86 -2 59 -65 -25 -61 -10 -49 20 15 15 33 31 60 37 60 6 0 8 4 4 9 -5
9 44 5 54 -4 2 -2 -4 -22 -13 -45 -23 -59 -19 -62 10 -7 16 31 31 47 43 47 11
0 34 12 51 26 36 31 44 27 44 -21 0 -19 1 -35 2 -35 1 0 9 11 18 25 13 20 14
28 4 45 -10 15 -10 27 -1 50 6 16 9 30 7 30 -3 0 -24 -20 -48 -45 -36 -36 -51
-45 -79 -45 -30 0 -34 3 -30 20 3 11 10 20 15 20 17 0 38 28 38 51 0 12 3 19
7 16 7 -7 17 6 52 68 21 36 9 27 -22 -17 -8 -12 -19 -16 -34 -12 -18 5 -20 10
-12 37 16 55 0 41 -33 -30 l-33 -70 -65 -6 c-38 -4 -68 -3 -72 3 -5 5 -5 8 -2
5 4 -2 47 34 97 81 49 47 106 96 126 108 40 25 69 56 54 56 -6 0 -32 -17 -59
-38z m-134 -288 c0 -2 -9 -4 -21 -4 -11 0 -18 4 -14 10 5 8 35 3 35 -6z"/>
<path d="M2443 3015 c-3 -9 -3 -18 -1 -21 3 -3 8 4 11 16 6 23 -1 27 -10 5z"/>
<path d="M2736 2967 c-10 -18 -32 -57 -49 -87 -16 -30 -33 -60 -38 -65 -11
-14 -30 -65 -24 -65 3 0 17 24 31 53 15 28 45 83 67 120 22 37 38 69 36 72 -3
2 -13 -11 -23 -28z"/>
<path d="M2433 2945 c3 -41 34 -44 104 -9 66 34 56 43 -16 14 -65 -25 -70 -25
-81 3 -9 20 -9 19 -7 -8z"/>
<path d="M2666 2943 c-6 -14 -5 -15 5 -6 7 7 10 15 7 18 -3 3 -9 -2 -12 -12z"/>
<path d="M2624 2878 c-4 -7 -14 -24 -22 -38 -14 -24 -13 -24 3 -5 20 24 37 55
31 55 -3 0 -8 -6 -12 -12z"/>
<path d="M3760 2880 c-14 -9 -7 -15 15 -10 5 1 14 -5 20 -13 9 -12 13 -10 28
9 l18 24 -33 0 c-18 0 -40 -5 -48 -10z"/>
<path d="M3896 2875 c-4 -12 0 -14 22 -9 50 12 60 23 21 24 -24 0 -39 -5 -43
-15z"/>
<path d="M3241 2844 c-18 -14 -37 -36 -43 -48 -6 -11 9 -2 33 22 24 23 50 40
57 37 6 -2 12 0 12 5 0 18 -28 10 -59 -16z"/>
<path d="M2337 2816 c-20 -18 -37 -37 -37 -41 0 -5 9 0 21 11 11 10 32 19 47
20 20 0 28 7 30 22 5 32 -18 27 -61 -12z"/>
<path d="M1225 2831 c-9 -16 13 -23 35 -11 11 6 20 12 20 13 0 8 -50 5 -55 -2z"/>
<path d="M1982 2828 c3 -7 15 -14 27 -16 16 -3 21 -8 17 -20 -4 -11 2 -8 14 7
29 34 25 41 -21 41 -28 0 -39 -4 -37 -12z"/>
<path d="M2097 2785 c-15 -30 -25 -55 -22 -55 2 0 13 17 24 39 21 39 36 50 74
52 21 0 21 1 2 9 -38 16 -50 9 -78 -45z"/>
<path d="M3685 2814 c-9 -15 -12 -23 -6 -20 11 7 35 46 28 46 -3 0 -12 -12
-22 -26z"/>
<path d="M3866 2823 c-6 -14 -5 -15 5 -6 7 7 10 15 7 18 -3 3 -9 -2 -12 -12z"/>
<path d="M2417 2770 c-20 -21 -62 -48 -92 -60 -52 -21 -65 -33 -47 -44 20 -12
199 123 181 137 -2 2 -21 -13 -42 -33z"/>
<path d="M3567 2765 c-33 -39 -34 -44 -16 -42 13 1 28 15 41 40 10 21 18 41
16 43 -2 2 -21 -16 -41 -41z"/>
<path d="M1158 2783 c-45 -52 -46 -93 -3 -93 23 0 25 -2 14 -22 -10 -20 -7
-19 22 7 19 16 28 23 22 15 -7 -8 -13 -18 -13 -24 0 -5 9 1 20 14 28 32 25 38
-17 45 -67 11 -68 13 -43 40 13 14 21 27 18 30 -2 3 -12 -3 -20 -12z"/>
<path d="M3476 2783 c-6 -14 -5 -15 5 -6 7 7 10 15 7 18 -3 3 -9 -2 -12 -12z"/>
<path d="M3846 2783 c-6 -14 -5 -15 5 -6 7 7 10 15 7 18 -3 3 -9 -2 -12 -12z"/>
<path d="M1882 2743 c-19 -24 -32 -46 -30 -49 3 -2 19 17 37 42 43 59 36 65
-7 7z"/>
<path d="M3292 2767 c-6 -7 -34 -24 -62 -37 -27 -13 -50 -27 -50 -31 0 -12 93
37 114 60 11 11 17 21 14 21 -3 0 -10 -6 -16 -13z"/>
<path d="M3653 2768 c-15 -20 -25 -38 -20 -38 3 0 12 11 21 25 17 26 16 35 -1
13z"/>
<path d="M1729 2718 c-21 -33 -41 -52 -52 -52 -10 1 -17 -5 -17 -17 0 -30 13
-23 64 36 46 53 70 67 78 44 2 -7 12 0 21 15 l17 26 -38 0 c-35 0 -41 -4 -73
-52z"/>
<path d="M2196 2723 c-6 -14 -5 -15 5 -6 7 7 10 15 7 18 -3 3 -9 -2 -12 -12z"/>
<path d="M3719 2694 c-18 -20 -56 -54 -82 -76 -43 -36 -51 -39 -73 -30 -16 8
-24 20 -25 39 -1 28 -1 28 -12 -5 -8 -27 -7 -36 5 -49 26 -25 73 -7 137 53 32
30 62 54 66 54 4 0 4 -12 1 -26 -4 -14 -2 -41 4 -60 9 -27 17 -34 37 -34 42 0
90 29 136 83 61 73 68 92 10 30 -53 -57 -121 -97 -147 -87 -21 8 -30 45 -22
100 3 24 4 44 3 44 -2 0 -19 -16 -38 -36z"/>
<path d="M2593 2705 c-3 -9 -3 -18 -1 -21 3 -3 8 4 11 16 6 23 -1 27 -10 5z"/>
<path d="M1780 2689 c-7 -11 -10 -23 -7 -25 2 -2 9 7 15 21 14 30 7 33 -8 4z"/>
<path d="M2913 2672 c-77 -70 -249 -139 -278 -111 -6 7 -5 13 4 18 22 14 6 36
-28 39 -32 2 -32 2 -27 -33 l6 -36 -37 3 c-36 3 -38 5 -43 43 l-6 40 -7 -38
c-11 -51 11 -87 53 -87 55 0 224 51 276 83 54 34 101 72 123 100 21 26 10 20
-36 -21z"/>
<path d="M3085 2656 c3 -47 9 -64 29 -83 30 -28 101 -32 132 -7 19 15 19 16
-1 9 -62 -21 -84 -18 -114 14 -17 18 -33 51 -40 78 l-10 48 4 -59z"/>
<path d="M3320 2633 c-40 -42 -43 -47 -11 -18 40 37 44 39 55 21 31 -51 42
-59 62 -48 16 9 16 11 3 12 -22 0 -40 23 -48 60 l-6 31 -55 -58z"/>
<path d="M1934 2626 c-47 -52 -94 -86 -121 -86 -22 0 -43 32 -44 68 l-1 37
-10 -32 c-14 -41 5 -93 34 -93 30 0 114 47 135 76 l20 27 7 -43 c4 -24 12 -50
18 -57 20 -24 62 -13 128 32 63 44 65 45 78 26 37 -55 53 -65 92 -64 21 1 54
9 72 19 37 18 118 93 118 108 0 6 -19 -8 -42 -31 -55 -53 -77 -63 -132 -63
-36 0 -48 5 -65 26 -12 15 -21 35 -21 45 0 36 -23 32 -64 -14 -99 -110 -188
-95 -158 25 6 23 10 44 8 46 -2 1 -26 -22 -52 -52z"/>
<path d="M1569 2584 c-13 -14 -43 -37 -66 -51 -52 -30 -81 -24 -90 20 -6 29
-7 29 -15 8 -8 -24 1 -49 26 -70 12 -10 22 -8 53 8 46 24 130 97 122 105 -3 3
-16 -6 -30 -20z"/>
<path d="M3555 2455 c-75 -43 -65 -45 17 -4 33 17 69 28 79 26 11 -3 17 -1 13
4 -10 18 -50 8 -109 -26z"/>
<path d="M3594 2425 c-10 -8 -14 -15 -8 -15 5 0 19 7 30 15 10 8 14 15 8 15
-5 0 -19 -7 -30 -15z"/>
<path d="M3520 2390 c-19 -11 -30 -19 -25 -19 6 0 26 8 45 19 19 11 31 19 25
19 -5 0 -26 -8 -45 -19z"/>
<path d="M3641 2358 c-18 -28 -26 -47 -19 -40 14 11 62 92 55 92 -2 0 -19 -23
-36 -52z"/>
<path d="M3420 2390 c-9 -6 -10 -10 -3 -10 6 0 15 5 18 10 8 12 4 12 -15 0z"/>
<path d="M1550 2353 c-28 -27 -33 -90 -11 -131 12 -23 45 -30 56 -12 3 6 -1 7
-10 4 -41 -16 -65 57 -36 109 30 54 53 55 201 9 72 -23 137 -42 143 -41 7 0
-49 20 -123 44 -154 51 -185 53 -220 18z"/>
<path d="M3395 2331 c-22 -11 -37 -20 -34 -20 10 -1 79 29 79 34 0 7 0 7 -45
-14z"/>
<path d="M1588 2329 c-11 -6 -18 -21 -17 -37 l1 -27 7 25 c9 35 34 35 142 1
117 -37 348 -93 369 -88 8 1 -34 13 -95 26 -60 13 -171 43 -246 67 -155 50
-139 47 -161 33z"/>
<path d="M3215 2310 c-13 -5 -14 -9 -5 -9 8 0 24 4 35 9 13 5 14 9 5 9 -8 0
-24 -4 -35 -9z"/>
<path d="M3495 2240 l-49 -55 54 52 c30 29 52 54 50 56 -3 1 -27 -22 -55 -53z"/>
<path d="M3270 2280 c-8 -5 -10 -10 -5 -10 6 0 17 5 25 10 8 5 11 10 5 10 -5
0 -17 -5 -25 -10z"/>
<path d="M3210 2260 c-18 -12 -2 -12 25 0 13 6 15 9 5 9 -8 0 -22 -4 -30 -9z"/>
<path d="M2028 2253 c6 -2 18 -2 25 0 6 3 1 5 -13 5 -14 0 -19 -2 -12 -5z"/>
<path d="M3038 2253 c7 -3 16 -2 19 1 4 3 -2 6 -13 5 -11 0 -14 -3 -6 -6z"/>
<path d="M2078 2243 c7 -3 16 -2 19 1 4 3 -2 6 -13 5 -11 0 -14 -3 -6 -6z"/>
<path d="M2988 2243 c7 -3 16 -2 19 1 4 3 -2 6 -13 5 -11 0 -14 -3 -6 -6z"/>
<path d="M2850 2223 c-52 -11 -144 -16 -299 -17 -160 -1 -209 -3 -170 -9 115
-18 551 12 578 39 7 7 -31 2 -109 -13z"/>
<path d="M2198 2223 c6 -2 18 -2 25 0 6 3 1 5 -13 5 -14 0 -19 -2 -12 -5z"/>
<path d="M3060 2220 c-20 -6 -21 -8 -5 -8 11 0 29 3 40 8 25 11 -1 11 -35 0z"/>
<path d="M2268 2213 c6 -2 18 -2 25 0 6 3 1 5 -13 5 -14 0 -19 -2 -12 -5z"/>
<path d="M2989 2205 c-3 -2 -63 -14 -135 -26 -112 -18 -157 -20 -344 -16 -118
3 -241 10 -273 16 -32 7 -64 10 -70 8 -7 -2 40 -12 103 -22 169 -28 436 -26
590 3 131 25 187 40 154 41 -11 1 -23 -1 -25 -4z"/>
<path d="M2118 2193 c6 -2 18 -2 25 0 6 3 1 5 -13 5 -14 0 -19 -2 -12 -5z"/>
<path d="M1728 2146 c20 -19 39 -32 41 -30 5 5 -60 63 -71 64 -4 0 9 -15 30
-34z"/>
<path d="M3355 2102 c-98 -83 -159 -125 -250 -174 -38 -21 -68 -38 -65 -38 3
0 51 18 105 41 94 38 117 51 190 113 29 24 29 25 5 19 -18 -5 -8 8 38 46 54
45 70 61 60 61 -2 0 -39 -31 -83 -68z"/>
<path d="M1850 2056 c0 -2 8 -10 18 -17 15 -13 16 -12 3 4 -13 16 -21 21 -21
13z"/>
<path d="M1890 2026 c0 -2 8 -10 18 -17 15 -13 16 -12 3 4 -13 16 -21 21 -21
13z"/>
<path d="M3115 1971 c-57 -26 -284 -88 -460 -126 -134 -29 -146 -33 -113 -40
121 -23 413 51 583 150 63 36 57 46 -10 16z"/>
<path d="M3217 1941 c-66 -39 -72 -48 -10 -17 28 14 54 30 58 36 8 14 7 13
-48 -19z"/>
<path d="M2050 1927 c0 -9 116 -59 213 -92 54 -18 92 -35 85 -37 -7 -3 18 -10
56 -17 165 -29 509 24 608 93 31 22 15 20 -32 -4 -61 -31 -222 -69 -324 -76
-180 -13 -334 22 -593 133 -7 3 -13 3 -13 0z"/>
<path d="M4008 1653 c-30 -45 -46 -93 -31 -93 14 0 65 97 61 117 -2 12 -11 5
-30 -24z"/>
<path d="M3808 1547 c-44 -33 -63 -77 -34 -77 13 0 69 61 90 98 13 22 -11 13
-56 -21z"/>
<path d="M3337 1544 c-27 -27 -34 -44 -19 -44 14 0 54 48 50 60 -2 7 -15 1
-31 -16z"/>
<path d="M1553 1602 c-17 -20 -40 -58 -52 -82 l-22 -45 38 41 c42 45 90 124
75 124 -5 0 -22 -17 -39 -38z"/>
<path d="M1998 1489 c-44 -22 -66 -55 -49 -72 8 -8 21 -1 47 24 37 36 60 69
47 69 -4 -1 -25 -10 -45 -21z"/>
<path d="M1662 1467 c-24 -25 -30 -77 -9 -77 22 0 32 14 43 58 13 49 1 56 -34
19z"/>
<path d="M1340 1487 c-33 -16 -69 -57 -70 -79 0 -30 25 -20 68 28 56 60 56 76
2 51z"/>
<path d="M301 1954 c0 -11 3 -14 6 -6 3 7 2 16 -1 19 -3 4 -6 -2 -5 -13z"/>
</g>
</svg>
